Coordinates
version=1
nRows=29
nColumns=24
inDegrees=yes

Units are S.I. units (second, meters, Newtons, ...)
Angles are in degrees.

endheader
time	pelvis_tilt	pelvis_list	pelvis_rotation	pelvis_tx	pelvis_ty	pelvis_tz	hip_flexion_r	hip_adduction_r	hip_rotation_r	knee_angle_r	ankle_angle_r	subtalar_angle_r	mtp_angle_r	hip_flexion_l	hip_adduction_l	hip_rotation_l	knee_angle_l	ankle_angle_l	subtalar_angle_l	mtp_angle_l	lumbar_extension	lumbar_bending	lumbar_rotation
      1.06700000	     -0.58549320	     -6.36423202	     -3.62478334	     -0.15232440	      0.98477827	      0.33882805	    -16.27334049	     10.22922626	      3.06254614	     -5.54480628	      7.92034868	     -8.94205233	     -0.33191608	     21.93266557	     -5.63791466	     -5.18092386	      2.75031852	     -2.92693349	     -1.84124150	      4.16221666	     -5.13387622	     10.10432072	      7.13319086
      1.07116667	     -0.64199770	     -6.32514029	     -3.66402611	     -0.14651805	      0.98419170	      0.33860121	    -16.34771885	     10.14066423	      3.07601790	     -5.94500779	      7.84931495	     -8.97061099	     -0.29744813	     21.91356998	     -5.54887214	     -5.27483057	      2.78095951	     -3.04394568	     -1.92532473	      4.18484032	     -5.06376429	     10.07342381	      7.13693655
      1.07533333	     -0.73946985	     -6.27353181	     -3.69574030	     -0.14067492	      0.98360683	      0.33836856	    -16.35485870	     10.04771952	      3.08632162	     -6.39292356	      7.84930441	     -8.96213049	     -0.19880488	     21.92048423	     -5.44730613	     -5.25291205	      2.78187515	     -3.29424394	     -2.19186525	      4.25279423	     -4.91710493	      9.98847595	      7.20822114
      1.07950000	     -0.82539926	     -6.22570928	     -3.72360421	     -0.13482873	      0.98309336	      0.33811931	    -16.34560370	      9.95868295	      3.06439753	     -6.88518322	      7.77452785	     -8.95459541	     -0.01833997	     21.92000947	     -5.35036343	     -5.17363859	      2.70459853	     -3.53756060	     -2.60315212	      4.38866278	     -4.79096578	      9.94285267	      7.25283531
      1.08366667	     -0.92467221	     -6.14778162	     -3.73724185	     -0.12892950	      0.98262506	      0.33786720	    -16.31521007	      9.84799134	      3.05754421	     -7.38410893	      7.68465741	     -9.02069061	      0.15316630	     21.95388841	     -5.22314362	     -5.12175267	      2.53061058	     -3.83645197	     -2.95787601	      4.52069218	     -4.63644587	      9.84592626	      7.26859312
      1.08783333	     -0.99726319	     -6.04346663	     -3.74633698	     -0.12296861	      0.98225679	      0.33763492	    -16.29524363	      9.71222316	      3.04094499	     -7.91156134	      7.53902453	     -9.12947708	      0.24621663	     21.95545764	     -5.07301144	     -5.09541467	      2.30402563	     -4.13145788	     -3.23806727	      4.59421480	     -4.49027702	      9.69262129	      7.26774412
      1.09200000	     -1.12023761	     -5.96528391	     -3.73335630	     -0.11705406	      0.98186355	      0.33733456	    -16.19406595	      9.61557855	      3.03511748	     -8.48129932	      7.40331610	     -9.23599587	      0.43818294	     22.02932232	     -4.94088924	     -4.90526061	      2.00808965	     -4.51766145	     -3.82697615	      4.74756181	     -4.31792312	      9.61554669	      7.27292491
      1.09616667	     -1.20314132	     -5.83117361	     -3.72530034	     -0.11103661	      0.98159885	      0.33707540	    -16.11227999	      9.45840686	      2.99559379	     -9.08982800	      7.19109598	     -9.38340485	      0.55329389	     22.04761030	     -4.75932076	     -4.82342376	      1.68328880	     -4.87575125	     -4.17779239	      4.83905332	     -4.15745062	      9.42659399	      7.25587642
      1.10033333	     -1.31830421	     -5.74526526	     -3.68862388	     -0.10507492	      0.98132825	      0.33674420	    -15.97647994	      9.36484856	      2.97570597	     -9.72528104	      6.98587994	     -9.53556303	      0.79428357	     22.12622875	     -4.61483565	     -4.57764285	      1.28773492	     -5.32430702	     -4.86386499	      5.02488716	     -3.98088793	      9.33713318	      7.22506397
      1.10450000	     -1.42537533	     -5.62404238	     -3.65123355	     -0.09904775	      0.98113459	      0.33642869	    -15.81764501	      9.23543176	      2.92218800	    -10.41321810	      6.71815376	     -9.71188362	      1.05207051	     22.19388378	     -4.43840533	     -4.39328848	      0.86155218	     -5.76553741	     -5.40875235	      5.21567046	     -3.79171201	      9.18263835	      7.18673539
      1.10866667	     -1.48908721	     -5.47914739	     -3.59743790	     -0.09297674	      0.98104132	      0.33606857	    -15.67029083	      9.07244119	      2.77599836	    -11.14154183	      6.31451773	     -9.86306033	      5.46934028	     22.21253446	     -4.23165721	     -4.21514055	      0.41928077	     -6.23599579	     -5.95582833	      8.21534208	     -3.65957101	      8.99756946	      7.13188510
      1.11283333	     -1.61323587	     -5.35223117	     -3.54494751	     -0.08690851	      0.98094373	      0.33573834	    -15.44453490	      8.95060460	      2.74523833	    -11.90490310	      5.97936467	    -10.12459949	      5.51746671	     22.31847789	     -4.05027204	     -4.03955241	     -0.09174804	     -6.69530294	     -6.44845251	      8.18568300	     -3.44433685	      8.83276734	      7.08480665
      1.11700000	     -1.71417677	     -5.21888599	     -3.47971098	     -0.08082854	      0.98092734	      0.33537383	    -15.20305553	      8.82044729	      2.66660635	    -12.73045610	      5.58135998	    -10.35727033	      5.60506845	     22.38791959	     -3.85579640	     -3.81034646	     -0.59704646	     -7.14563134	     -6.99533001	      8.16727775	     -3.25933137	      8.66374580	      7.01486330
      1.12116667	     -1.80764658	     -5.07688895	     -3.40592616	     -0.07473009	      0.98097058	      0.33498403	    -14.93603334	      8.68084242	      2.56441986	    -13.60576878	      5.13616511	    -10.56794466	      5.73868327	     22.44907920	     -3.64971012	     -3.58045201	     -1.11627985	     -7.58751582	     -7.52238171	      8.15834304	     -3.08226677	      8.48457551	      6.93729314
      1.12533333	     -1.89283120	     -4.92794427	     -3.32244285	     -0.06861198	      0.98107535	      0.33458265	    -14.64257013	      8.53579715	      2.43639381	    -14.53450830	      4.63994237	    -10.77893342	      5.93087719	     22.50230255	     -3.43422379	     -3.35336210	     -1.65023681	     -8.01491324	     -8.02827034	      8.15659215	     -2.90655518	      8.29274478	      6.84815648
      1.12950000	     -1.97856157	     -4.78155324	     -3.23109688	     -0.06249086	      0.98123064	      0.33415878	    -14.31311528	      8.39397695	      2.30017675	    -15.51363869	      4.08370094	    -10.98614515	      6.15360827	     22.56197899	     -3.22039604	     -3.13893505	     -2.20541108	     -8.41549374	     -8.47495539	      8.15861625	     -2.73226478	      8.10423290	      6.76282618
      1.13366667	     -2.06561168	     -4.62490525	     -3.13837593	     -0.05635741	      0.98143701	      0.33372717	    -13.94066844	      8.23918998	      2.14002301	    -16.55447135	      3.46359556	    -11.18340162	      6.40592164	     22.61627103	     -2.99720249	     -2.93013815	     -2.75955707	     -8.78507863	     -8.88252084	      8.16135392	     -2.55280185	      7.90524668	      6.67320193
      1.13783333	     -2.12115689	     -4.45965394	     -3.03162039	     -0.05022653	      0.98171549	      0.33327528	    -13.56799727	      8.07415719	      1.96009772	    -17.64170930	      2.81544170	    -11.36884252	      6.82426141	     22.64353566	     -2.75893785	     -2.72785870	     -3.33423445	     -9.12201267	     -9.33765717	      8.16468007	     -2.41299473	      7.68256019	      6.55812670
      1.14200000	     -2.19388052	     -4.29684047	     -2.93546736	     -0.04409515	      0.98202899	      0.33281713	    -13.12867100	      7.90413624	      1.76463383	    -18.79849940	      2.04963340	    -11.54009632	      7.23760440	     22.66848959	     -2.52997135	     -2.53358845	     -3.87827322	     -9.41212538	     -9.64467011	      8.16336624	     -2.25244236	      7.48346264	      6.47007312
      1.14616667	     -2.24256148	     -4.12237568	     -2.83834462	     -0.03795769	      0.98241444	      0.33235579	    -12.67640133	      7.71534013	      1.54791566	    -20.00927267	      1.23380963	    -11.70691005	      7.63464200	     22.65806862	     -2.29027882	     -2.36409031	     -4.41385192	     -9.64567613	     -9.90813776	      8.15642301	     -2.11128174	      7.26016460	      6.37750608
      1.15033333	     -2.21849216	     -3.91345624	     -2.71112310	     -0.03181581	      0.98290704	      0.33181467	    -12.26751011	      7.46923954	      1.23058349	    -21.24434098	      0.28887167	    -11.88902651	     14.69890350	     22.56962073	     -1.99740944	     -2.18133146	     -4.95688939	     -9.79983886	    -10.21831495	      7.97046349	     -2.07451927	      6.98236288	      6.27240942
      1.15450000	     -2.25580097	     -3.72741545	     -2.63826611	     -0.02570886	      0.98338769	      0.33138446	    -11.74839545	      7.25745163	      1.04502684	    -22.56275862	     -0.64235205	    -12.08303127	     14.72430228	     22.53708566	     -1.76045732	     -2.10732919	     -5.49028356	     -9.95227600	    -10.35292408	      7.96659483	     -1.95471584	      6.74398422	      6.20427011
      1.15866667	     -2.27767656	     -3.53517778	     -2.54281240	     -0.01962776	      0.98390344	      0.33089851	    -11.20674042	      7.03063551	      0.80645061	    -23.92764512	     -1.64016346	    -12.23038538	     14.77869693	     22.48114757	     -1.50467826	     -1.98530572	     -6.01221144	    -10.03827554	    -10.52546960	      7.95865131	     -1.85949270	      6.50199276	      6.11875383
      1.16283333	     -2.30391401	     -3.35261581	     -2.44228855	     -0.01359784	      0.98442509	      0.33038791	    -10.61977287	      6.80827810	      0.55946226	    -25.34240246	     -2.69321547	    -12.34677229	     14.90537776	     22.43197872	     -1.25492380	     -1.85730732	     -6.53912096	    -10.10002139	    -10.73926957	      7.93836024	     -1.77041500	      6.27285347	      6.00457498
      1.16700000	     -2.31189200	     -3.14332344	     -2.35485966	     -0.00755662	      0.98500797	      0.32988599	    -10.01874705	      6.54268615	      0.30132985	    -26.79463636	     -3.82886760	    -12.47035379	     15.03331476	     22.32546006	     -0.98233570	     -1.75052240	     -7.00116600	    -10.10740697	    -10.86525034	      7.91697257	     -1.69119095	      6.01496180	      5.91529496
      1.17116667	     -2.29462527	     -2.93331443	     -2.26587219	     -0.00156687	      0.98562691	      0.32937590	     -9.41032596	      6.26815129	      0.04039721	    -28.28595667	     -5.01335082	    -12.58645051	     15.17009671	     22.18372998	     -0.70774423	     -1.65548357	     -7.44752247	    -10.07073139	    -10.97655307	      7.89261813	     -1.65211651	      5.75292487	      5.82297573
      1.17533333	     -2.30225167	     -2.73103461	     -2.17424234	      0.00436344	      0.98621937	      0.32885633	     -8.74283310	      5.99836597	     -0.21479262	    -29.80772666	     -6.26039043	    -12.70428719	     15.38816909	     22.07396748	     -0.43954503	     -1.56276659	     -7.90408243	    -10.01141372	    -11.12345086	      7.85006885	     -1.59720207	      5.50240022	      5.71182418
      1.17950000	     -2.26576815	     -2.49000113	     -2.10843305	      0.01030394	      0.98690284	      0.32834146	     -8.09682682	      5.66820895	     -0.45703110	    -31.35011880	     -7.58753712	    -12.96276548	     19.09694642	     21.85081056	     -0.13276902	     -1.47918951	     -8.23475694	     -9.97377275	    -11.28574882	      7.05588556	     -1.58237533	      5.21464624	      5.46253603
      1.18366667	     -2.25357683	     -2.26868122	     -2.01434134	      0.01617515	      0.98752994	      0.32779741	     -7.39480387	      5.35425402	     -0.73892835	    -32.92228289	     -8.92527492	    -13.04358645	     19.10699438	     21.67640194	      0.15784445	     -1.39332943	     -8.61103359	     -9.76737152	    -11.28015086	      7.06423642	     -1.54667618	      4.94156102	      5.49059681
